<svg xmlns="http://www.w3.org/2000/svg" xmlns:xlink="http://www.w3.org/1999/xlink" width="100" zoomAndPan="magnify" viewBox="0 0 75 37.5" height="50" preserveAspectRatio="xMidYMid meet" version="1.0"><defs><g/><clipPath id="3cc210134c"><path d="M 35 6.308594 L 37 6.308594 L 37 26 L 35 26 Z M 35 6.308594 " clip-rule="nonzero"/></clipPath><clipPath id="925a5b375f"><path d="M 36 6.308594 L 39 6.308594 L 39 26.710938 L 36 26.710938 Z M 36 6.308594 " clip-rule="nonzero"/></clipPath><clipPath id="168200a349"><path d="M 28.957031 12 L 46.027344 12 L 46.027344 13 L 28.957031 13 Z M 28.957031 12 " clip-rule="nonzero"/></clipPath></defs><path fill="#0378be" d="M 30.953125 16.105469 C 30.910156 16.0625 30.851562 16.039062 30.789062 16.039062 C 30.726562 16.039062 30.667969 16.0625 30.628906 16.105469 C 30.585938 16.148438 30.5625 16.203125 30.5625 16.269531 C 30.5625 16.332031 30.585938 16.390625 30.628906 16.429688 C 30.667969 16.472656 30.726562 16.496094 30.789062 16.496094 C 30.851562 16.496094 30.910156 16.472656 30.953125 16.429688 C 30.992188 16.390625 31.019531 16.332031 31.019531 16.269531 C 31.019531 16.203125 30.992188 16.148438 30.953125 16.105469 Z M 30.917969 10.46875 L 30.660156 10.46875 L 30.660156 10.726562 L 30.917969 10.726562 Z M 30.492188 10.125 L 31.257812 10.125 L 31.257812 11.070312 L 30.960938 11.070312 L 30.960938 11.855469 L 30.621094 11.855469 L 30.621094 11.070312 L 30.320312 11.070312 L 30.320312 10.125 Z M 30.960938 12.519531 L 30.960938 15.722656 C 31.046875 15.75 31.128906 15.800781 31.191406 15.863281 C 31.292969 15.96875 31.359375 16.109375 31.359375 16.269531 C 31.359375 16.425781 31.296875 16.566406 31.191406 16.671875 C 31.089844 16.773438 30.945312 16.839844 30.789062 16.839844 C 30.632812 16.839844 30.492188 16.773438 30.386719 16.671875 C 30.285156 16.570312 30.21875 16.425781 30.21875 16.269531 C 30.21875 16.109375 30.285156 15.96875 30.386719 15.863281 C 30.453125 15.800781 30.53125 15.75 30.621094 15.722656 L 30.621094 12.519531 Z M 30.960938 12.519531 " fill-opacity="1" fill-rule="nonzero"/><path fill="#644c9a" d="M 32.257812 9.96875 L 32 9.96875 L 32 10.226562 L 32.257812 10.226562 Z M 31.832031 9.625 L 32.597656 9.625 L 32.597656 10.566406 L 32.300781 10.566406 L 32.300781 11.855469 L 31.960938 11.855469 L 31.960938 10.566406 L 31.660156 10.566406 L 31.660156 9.625 Z M 32.292969 19.898438 C 32.25 19.855469 32.195312 19.832031 32.128906 19.832031 C 32.066406 19.832031 32.007812 19.855469 31.96875 19.898438 C 31.925781 19.9375 31.902344 19.996094 31.902344 20.058594 C 31.902344 20.125 31.925781 20.179688 31.96875 20.222656 C 32.007812 20.265625 32.066406 20.289062 32.128906 20.289062 C 32.191406 20.289062 32.25 20.265625 32.292969 20.222656 C 32.332031 20.179688 32.359375 20.125 32.359375 20.058594 C 32.359375 19.996094 32.332031 19.9375 32.292969 19.898438 Z M 32.300781 12.519531 L 32.300781 19.515625 C 32.386719 19.542969 32.46875 19.59375 32.53125 19.65625 C 32.636719 19.761719 32.699219 19.902344 32.699219 20.058594 C 32.699219 20.21875 32.636719 20.359375 32.53125 20.464844 C 32.429688 20.566406 32.285156 20.632812 32.128906 20.632812 C 31.972656 20.632812 31.832031 20.566406 31.726562 20.464844 C 31.625 20.359375 31.5625 20.21875 31.5625 20.058594 C 31.5625 19.902344 31.625 19.757812 31.726562 19.65625 C 31.792969 19.589844 31.871094 19.542969 31.960938 19.515625 L 31.960938 12.519531 Z M 32.300781 12.519531 " fill-opacity="1" fill-rule="nonzero"/><path fill="#c52f90" d="M 33.632812 21.746094 C 33.589844 21.703125 33.535156 21.679688 33.46875 21.679688 C 33.40625 21.679688 33.347656 21.703125 33.308594 21.746094 C 33.265625 21.785156 33.242188 21.84375 33.242188 21.90625 C 33.242188 21.972656 33.265625 22.027344 33.308594 22.070312 C 33.351562 22.113281 33.40625 22.136719 33.46875 22.136719 C 33.53125 22.136719 33.589844 22.113281 33.632812 22.070312 C 33.671875 22.027344 33.699219 21.972656 33.699219 21.90625 C 33.699219 21.84375 33.671875 21.785156 33.632812 21.746094 Z M 33.597656 8.175781 L 33.339844 8.175781 L 33.339844 8.4375 L 33.597656 8.4375 Z M 33.171875 7.835938 L 33.9375 7.835938 L 33.9375 8.777344 L 33.640625 8.777344 L 33.640625 11.855469 L 33.300781 11.855469 L 33.300781 8.777344 L 33 8.777344 L 33 7.835938 Z M 33.640625 12.519531 L 33.640625 21.363281 C 33.726562 21.390625 33.808594 21.441406 33.871094 21.503906 C 33.976562 21.609375 34.039062 21.75 34.039062 21.90625 C 34.039062 22.066406 33.976562 22.207031 33.871094 22.3125 C 33.769531 22.414062 33.628906 22.480469 33.46875 22.480469 C 33.3125 22.480469 33.171875 22.414062 33.066406 22.3125 C 32.964844 22.207031 32.902344 22.066406 32.902344 21.90625 C 32.902344 21.75 32.964844 21.605469 33.066406 21.503906 C 33.132812 21.441406 33.210938 21.390625 33.300781 21.363281 L 33.300781 12.519531 Z M 33.640625 12.519531 " fill-opacity="1" fill-rule="nonzero"/><path fill="#f04033" d="M 34.972656 19.628906 C 34.929688 19.589844 34.875 19.5625 34.808594 19.5625 C 34.746094 19.5625 34.691406 19.589844 34.648438 19.628906 C 34.605469 19.671875 34.582031 19.730469 34.582031 19.792969 C 34.582031 19.855469 34.605469 19.914062 34.648438 19.957031 C 34.691406 19.996094 34.746094 20.023438 34.808594 20.023438 C 34.875 20.023438 34.929688 19.996094 34.972656 19.957031 C 35.011719 19.914062 35.039062 19.855469 35.039062 19.792969 C 35.039062 19.730469 35.011719 19.671875 34.972656 19.628906 Z M 34.9375 8.941406 L 34.679688 8.941406 L 34.679688 9.199219 L 34.9375 9.199219 Z M 34.511719 8.597656 L 35.28125 8.597656 L 35.28125 9.539062 L 34.980469 9.539062 L 34.980469 11.855469 L 34.640625 11.855469 L 34.640625 9.539062 L 34.339844 9.539062 L 34.339844 8.597656 Z M 34.980469 12.519531 L 34.980469 19.246094 C 35.070312 19.277344 35.148438 19.324219 35.210938 19.390625 C 35.316406 19.492188 35.378906 19.636719 35.378906 19.792969 C 35.378906 19.949219 35.316406 20.09375 35.210938 20.195312 C 35.109375 20.300781 34.96875 20.363281 34.808594 20.363281 C 34.652344 20.363281 34.511719 20.300781 34.40625 20.195312 C 34.304688 20.09375 34.242188 19.949219 34.242188 19.792969 C 34.242188 19.636719 34.304688 19.492188 34.40625 19.390625 C 34.472656 19.324219 34.550781 19.277344 34.640625 19.246094 L 34.640625 12.519531 Z M 34.980469 12.519531 " fill-opacity="1" fill-rule="nonzero"/><g clip-path="url(#3cc210134c)"><path fill="#f58229" d="M 36.3125 24.734375 C 36.269531 24.695312 36.214844 24.667969 36.152344 24.667969 C 36.085938 24.667969 36.03125 24.695312 35.988281 24.734375 C 35.949219 24.777344 35.921875 24.835938 35.921875 24.898438 C 35.921875 24.960938 35.949219 25.019531 35.988281 25.0625 C 36.03125 25.101562 36.085938 25.128906 36.152344 25.128906 C 36.214844 25.128906 36.269531 25.101562 36.3125 25.0625 C 36.355469 25.019531 36.378906 24.960938 36.378906 24.898438 C 36.378906 24.835938 36.355469 24.777344 36.3125 24.734375 Z M 36.277344 7.097656 L 36.019531 7.097656 L 36.019531 7.359375 L 36.277344 7.359375 Z M 35.851562 6.757812 L 36.621094 6.757812 L 36.621094 7.699219 L 36.320312 7.699219 L 36.320312 11.855469 L 35.980469 11.855469 L 35.980469 7.699219 L 35.679688 7.699219 L 35.679688 6.757812 Z M 36.320312 12.519531 L 36.320312 24.351562 C 36.410156 24.382812 36.488281 24.429688 36.550781 24.496094 L 36.554688 24.496094 C 36.65625 24.597656 36.71875 24.742188 36.71875 24.898438 C 36.71875 25.054688 36.65625 25.199219 36.550781 25.300781 C 36.449219 25.40625 36.308594 25.46875 36.152344 25.46875 C 35.992188 25.46875 35.851562 25.40625 35.746094 25.300781 C 35.644531 25.199219 35.582031 25.054688 35.582031 24.898438 C 35.582031 24.742188 35.644531 24.597656 35.746094 24.496094 C 35.8125 24.429688 35.890625 24.382812 35.980469 24.351562 L 35.980469 12.519531 Z M 36.320312 12.519531 " fill-opacity="1" fill-rule="nonzero"/></g><g clip-path="url(#925a5b375f)"><path fill="#fbb811" d="M 37.652344 25.976562 C 37.613281 25.933594 37.554688 25.90625 37.492188 25.90625 C 37.425781 25.90625 37.371094 25.933594 37.328125 25.976562 C 37.289062 26.015625 37.261719 26.074219 37.261719 26.136719 C 37.261719 26.199219 37.289062 26.257812 37.328125 26.300781 C 37.371094 26.339844 37.425781 26.367188 37.492188 26.367188 C 37.554688 26.367188 37.609375 26.339844 37.652344 26.300781 C 37.695312 26.257812 37.71875 26.203125 37.71875 26.136719 C 37.71875 26.074219 37.695312 26.015625 37.652344 25.976562 Z M 37.621094 6.652344 L 37.363281 6.652344 L 37.363281 6.910156 L 37.621094 6.910156 Z M 37.191406 6.308594 L 37.960938 6.308594 L 37.960938 7.253906 L 37.660156 7.253906 L 37.660156 11.855469 L 37.320312 11.855469 L 37.320312 7.253906 L 37.019531 7.253906 L 37.019531 6.308594 Z M 37.660156 12.519531 L 37.660156 25.59375 C 37.75 25.621094 37.828125 25.667969 37.890625 25.734375 L 37.894531 25.734375 C 37.996094 25.835938 38.058594 25.980469 38.058594 26.136719 C 38.058594 26.292969 37.996094 26.4375 37.894531 26.542969 C 37.789062 26.644531 37.648438 26.710938 37.492188 26.710938 C 37.332031 26.710938 37.191406 26.644531 37.089844 26.542969 C 36.984375 26.4375 36.921875 26.296875 36.921875 26.136719 C 36.921875 25.980469 36.984375 25.835938 37.089844 25.734375 C 37.152344 25.667969 37.230469 25.621094 37.320312 25.59375 L 37.320312 12.519531 Z M 37.660156 12.519531 " fill-opacity="1" fill-rule="nonzero"/></g><path fill="#88c63f" d="M 38.992188 23.597656 C 38.953125 23.558594 38.894531 23.53125 38.832031 23.53125 C 38.765625 23.53125 38.710938 23.558594 38.667969 23.597656 C 38.628906 23.640625 38.601562 23.699219 38.601562 23.761719 C 38.601562 23.824219 38.628906 23.882812 38.667969 23.921875 C 38.710938 23.964844 38.769531 23.992188 38.832031 23.992188 C 38.894531 23.992188 38.953125 23.964844 38.992188 23.921875 C 39.035156 23.882812 39.058594 23.824219 39.058594 23.761719 C 39.058594 23.699219 39.035156 23.640625 38.992188 23.597656 Z M 38.960938 7.507812 L 38.703125 7.507812 L 38.703125 7.769531 L 38.960938 7.769531 Z M 38.53125 7.167969 L 39.300781 7.167969 L 39.300781 8.109375 L 39 8.109375 L 39 11.855469 L 38.660156 11.855469 L 38.660156 8.109375 L 38.363281 8.109375 L 38.363281 7.167969 Z M 39 12.519531 L 39 23.214844 C 39.089844 23.242188 39.167969 23.292969 39.234375 23.355469 L 39.234375 23.359375 C 39.335938 23.460938 39.398438 23.605469 39.398438 23.761719 C 39.398438 23.917969 39.335938 24.0625 39.234375 24.164062 C 39.128906 24.269531 38.988281 24.332031 38.832031 24.332031 C 38.671875 24.332031 38.53125 24.269531 38.429688 24.164062 C 38.324219 24.0625 38.261719 23.917969 38.261719 23.761719 C 38.261719 23.601562 38.324219 23.460938 38.429688 23.355469 C 38.492188 23.292969 38.574219 23.242188 38.660156 23.214844 L 38.660156 12.519531 Z M 39 12.519531 " fill-opacity="1" fill-rule="nonzero"/><path fill="#05afaf" d="M 40.332031 18.667969 C 40.292969 18.628906 40.234375 18.601562 40.171875 18.601562 C 40.105469 18.601562 40.050781 18.628906 40.007812 18.667969 C 39.96875 18.710938 39.941406 18.769531 39.941406 18.832031 C 39.941406 18.894531 39.96875 18.953125 40.007812 18.996094 C 40.050781 19.035156 40.109375 19.0625 40.171875 19.0625 C 40.234375 19.0625 40.292969 19.035156 40.332031 18.996094 C 40.375 18.953125 40.398438 18.894531 40.398438 18.832031 C 40.398438 18.769531 40.375 18.710938 40.332031 18.667969 Z M 40.300781 9.285156 L 40.042969 9.285156 L 40.042969 9.542969 L 40.300781 9.542969 Z M 39.871094 8.945312 L 40.640625 8.945312 L 40.640625 9.886719 L 40.339844 9.886719 L 40.339844 11.855469 L 40 11.855469 L 40 9.886719 L 39.703125 9.886719 L 39.703125 8.945312 Z M 40.339844 12.519531 L 40.339844 18.285156 C 40.429688 18.3125 40.507812 18.363281 40.574219 18.425781 L 40.574219 18.429688 C 40.675781 18.53125 40.738281 18.675781 40.738281 18.832031 C 40.738281 18.988281 40.675781 19.132812 40.574219 19.234375 C 40.46875 19.339844 40.328125 19.402344 40.171875 19.402344 C 40.015625 19.402344 39.871094 19.339844 39.769531 19.234375 C 39.664062 19.132812 39.601562 18.988281 39.601562 18.832031 C 39.601562 18.675781 39.664062 18.53125 39.769531 18.425781 C 39.832031 18.363281 39.914062 18.3125 40 18.285156 L 40 12.519531 Z M 40.339844 12.519531 " fill-opacity="1" fill-rule="nonzero"/><path fill="#0378be" d="M 41.671875 20.035156 C 41.632812 19.996094 41.574219 19.96875 41.511719 19.96875 C 41.449219 19.96875 41.390625 19.996094 41.347656 20.035156 C 41.308594 20.078125 41.28125 20.136719 41.28125 20.199219 C 41.28125 20.261719 41.308594 20.320312 41.347656 20.359375 C 41.390625 20.402344 41.449219 20.429688 41.511719 20.429688 C 41.574219 20.429688 41.632812 20.402344 41.671875 20.359375 C 41.714844 20.320312 41.738281 20.261719 41.738281 20.199219 C 41.738281 20.136719 41.714844 20.078125 41.671875 20.035156 Z M 41.640625 8.792969 L 41.382812 8.792969 L 41.382812 9.050781 L 41.640625 9.050781 Z M 41.210938 8.453125 L 41.980469 8.453125 L 41.980469 9.394531 L 41.679688 9.394531 L 41.679688 11.855469 L 41.339844 11.855469 L 41.339844 9.394531 L 41.042969 9.394531 L 41.042969 8.453125 Z M 41.679688 12.519531 L 41.679688 19.652344 C 41.769531 19.683594 41.847656 19.730469 41.914062 19.796875 C 42.015625 19.898438 42.082031 20.042969 42.082031 20.199219 C 42.082031 20.355469 42.015625 20.5 41.914062 20.601562 C 41.808594 20.707031 41.667969 20.769531 41.511719 20.769531 C 41.355469 20.769531 41.210938 20.707031 41.109375 20.601562 C 41.003906 20.5 40.941406 20.355469 40.941406 20.199219 C 40.941406 20.042969 41.003906 19.898438 41.109375 19.796875 C 41.171875 19.730469 41.253906 19.679688 41.339844 19.652344 L 41.339844 12.519531 Z M 41.679688 12.519531 " fill-opacity="1" fill-rule="nonzero"/><path fill="#644c9a" d="M 43.011719 17.769531 C 42.972656 17.730469 42.914062 17.703125 42.851562 17.703125 C 42.789062 17.703125 42.730469 17.730469 42.691406 17.769531 L 42.691406 17.773438 C 42.648438 17.8125 42.621094 17.871094 42.621094 17.933594 C 42.621094 17.996094 42.648438 18.054688 42.691406 18.097656 C 42.730469 18.136719 42.789062 18.164062 42.851562 18.164062 C 42.914062 18.164062 42.972656 18.136719 43.011719 18.097656 L 43.015625 18.097656 C 43.054688 18.054688 43.078125 18 43.078125 17.933594 C 43.078125 17.871094 43.054688 17.8125 43.015625 17.773438 Z M 42.980469 9.609375 L 42.722656 9.609375 L 42.722656 9.867188 L 42.980469 9.867188 Z M 42.550781 9.269531 L 43.320312 9.269531 L 43.320312 10.210938 L 43.019531 10.210938 L 43.019531 11.855469 L 42.679688 11.855469 L 42.679688 10.210938 L 42.382812 10.210938 L 42.382812 9.269531 Z M 43.019531 12.519531 L 43.019531 17.390625 C 43.109375 17.417969 43.1875 17.464844 43.253906 17.53125 C 43.355469 17.636719 43.421875 17.777344 43.421875 17.933594 C 43.421875 18.089844 43.355469 18.234375 43.253906 18.339844 C 43.152344 18.441406 43.007812 18.507812 42.851562 18.507812 C 42.695312 18.507812 42.550781 18.441406 42.449219 18.339844 C 42.347656 18.234375 42.28125 18.09375 42.28125 17.933594 C 42.28125 17.777344 42.347656 17.632812 42.449219 17.53125 C 42.511719 17.464844 42.59375 17.417969 42.679688 17.390625 L 42.679688 12.519531 Z M 43.019531 12.519531 " fill-opacity="1" fill-rule="nonzero"/><path fill="#c52f90" d="M 44.351562 16.105469 C 44.3125 16.0625 44.253906 16.039062 44.191406 16.039062 C 44.128906 16.039062 44.070312 16.0625 44.03125 16.105469 C 43.988281 16.148438 43.960938 16.203125 43.960938 16.269531 C 43.960938 16.332031 43.988281 16.390625 44.03125 16.429688 C 44.070312 16.472656 44.128906 16.496094 44.191406 16.496094 C 44.253906 16.496094 44.3125 16.472656 44.351562 16.429688 L 44.355469 16.429688 C 44.394531 16.390625 44.421875 16.332031 44.421875 16.269531 C 44.421875 16.203125 44.394531 16.148438 44.355469 16.105469 Z M 44.320312 10.210938 L 44.0625 10.210938 L 44.0625 10.46875 L 44.320312 10.46875 Z M 43.890625 9.867188 L 44.660156 9.867188 L 44.660156 10.8125 L 44.363281 10.8125 L 44.363281 11.855469 L 44.019531 11.855469 L 44.019531 10.8125 L 43.722656 10.8125 L 43.722656 9.867188 Z M 44.363281 12.519531 L 44.363281 15.722656 C 44.449219 15.75 44.527344 15.800781 44.59375 15.863281 C 44.695312 15.96875 44.761719 16.109375 44.761719 16.269531 C 44.761719 16.425781 44.695312 16.566406 44.59375 16.671875 C 44.492188 16.773438 44.347656 16.839844 44.191406 16.839844 C 44.035156 16.839844 43.890625 16.773438 43.789062 16.671875 C 43.6875 16.570312 43.621094 16.425781 43.621094 16.269531 C 43.621094 16.109375 43.6875 15.96875 43.789062 15.863281 C 43.851562 15.800781 43.933594 15.75 44.019531 15.722656 L 44.019531 12.519531 Z M 44.363281 12.519531 " fill-opacity="1" fill-rule="nonzero"/><g clip-path="url(#168200a349)"><path fill="#f58229" d="M 28.960938 12.347656 L 46.023438 12.347656 L 46.023438 12.691406 L 28.960938 12.691406 Z M 28.960938 12.347656 " fill-opacity="1" fill-rule="nonzero"/></g><g fill="#0d1a42" fill-opacity="1"><g transform="translate(16.164151, 32.054599)"><g><path d="M 0.3125 0 L 0.3125 -3.390625 L 1.609375 -3.390625 C 1.859375 -3.390625 2.09375 -3.34375 2.3125 -3.25 C 2.53125 -3.164062 2.71875 -3.046875 2.875 -2.890625 C 3.039062 -2.742188 3.171875 -2.566406 3.265625 -2.359375 C 3.359375 -2.148438 3.40625 -1.925781 3.40625 -1.6875 C 3.40625 -1.445312 3.359375 -1.222656 3.265625 -1.015625 C 3.171875 -0.816406 3.039062 -0.640625 2.875 -0.484375 C 2.71875 -0.335938 2.53125 -0.21875 2.3125 -0.125 C 2.09375 -0.0390625 1.859375 0 1.609375 0 Z M 1.609375 -2.765625 L 1 -2.765625 L 1 -0.625 L 1.609375 -0.625 C 1.753906 -0.625 1.890625 -0.648438 2.015625 -0.703125 C 2.148438 -0.765625 2.265625 -0.84375 2.359375 -0.9375 C 2.460938 -1.03125 2.539062 -1.140625 2.59375 -1.265625 C 2.644531 -1.398438 2.671875 -1.539062 2.671875 -1.6875 C 2.671875 -1.832031 2.644531 -1.972656 2.59375 -2.109375 C 2.539062 -2.242188 2.460938 -2.359375 2.359375 -2.453125 C 2.265625 -2.546875 2.148438 -2.617188 2.015625 -2.671875 C 1.890625 -2.734375 1.753906 -2.765625 1.609375 -2.765625 Z M 1.609375 -2.765625 "/></g></g></g><g fill="#0d1a42" fill-opacity="1"><g transform="translate(20.516664, 32.054599)"><g><path d="M 0.3125 0 L 0.3125 -3.390625 L 1 -3.390625 L 1 0 Z M 0.3125 0 "/></g></g></g><g fill="#0d1a42" fill-opacity="1"><g transform="translate(22.610632, 32.054599)"><g><path d="M 3.671875 -1.6875 C 3.671875 -1.4375 3.628906 -1.203125 3.546875 -0.984375 C 3.460938 -0.773438 3.34375 -0.59375 3.1875 -0.4375 C 3.039062 -0.289062 2.859375 -0.171875 2.640625 -0.078125 C 2.429688 0.00390625 2.207031 0.046875 1.96875 0.046875 C 1.71875 0.046875 1.484375 0.00390625 1.265625 -0.078125 C 1.046875 -0.171875 0.851562 -0.296875 0.6875 -0.453125 C 0.53125 -0.609375 0.40625 -0.789062 0.3125 -1 C 0.21875 -1.21875 0.171875 -1.445312 0.171875 -1.6875 C 0.171875 -1.9375 0.21875 -2.164062 0.3125 -2.375 C 0.40625 -2.59375 0.53125 -2.78125 0.6875 -2.9375 C 0.851562 -3.09375 1.046875 -3.210938 1.265625 -3.296875 C 1.484375 -3.390625 1.71875 -3.4375 1.96875 -3.4375 C 2.25 -3.4375 2.507812 -3.378906 2.75 -3.265625 C 3 -3.160156 3.207031 -3.007812 3.375 -2.8125 L 2.875 -2.359375 C 2.757812 -2.503906 2.625 -2.613281 2.46875 -2.6875 C 2.3125 -2.757812 2.144531 -2.796875 1.96875 -2.796875 C 1.8125 -2.796875 1.664062 -2.765625 1.53125 -2.703125 C 1.40625 -2.648438 1.296875 -2.570312 1.203125 -2.46875 C 1.109375 -2.375 1.03125 -2.257812 0.96875 -2.125 C 0.914062 -2 0.890625 -1.851562 0.890625 -1.6875 C 0.890625 -1.53125 0.914062 -1.382812 0.96875 -1.25 C 1.03125 -1.113281 1.109375 -0.992188 1.203125 -0.890625 C 1.296875 -0.796875 1.410156 -0.722656 1.546875 -0.671875 C 1.679688 -0.617188 1.828125 -0.59375 1.984375 -0.59375 C 2.222656 -0.59375 2.425781 -0.65625 2.59375 -0.78125 C 2.769531 -0.914062 2.878906 -1.085938 2.921875 -1.296875 L 1.921875 -1.296875 L 1.921875 -1.90625 L 3.671875 -1.90625 Z M 3.671875 -1.6875 "/></g></g></g><g fill="#0d1a42" fill-opacity="1"><g transform="translate(27.234561, 32.054599)"><g><path d="M 0.3125 0 L 0.3125 -3.390625 L 1 -3.390625 L 1 0 Z M 0.3125 0 "/></g></g></g><g fill="#0d1a42" fill-opacity="1"><g transform="translate(29.32853, 32.054599)"><g><path d="M 0.09375 -2.765625 L 0.09375 -3.390625 L 3.078125 -3.390625 L 3.078125 -2.765625 L 1.9375 -2.765625 L 1.9375 0 L 1.234375 0 L 1.234375 -2.765625 Z M 0.09375 -2.765625 "/></g></g></g><g fill="#0d1a42" fill-opacity="1"><g transform="translate(33.264231, 32.054599)"><g><path d="M -0.015625 0 L 1.375 -3.390625 L 2.1875 -3.390625 L 3.5625 0 L 2.796875 0 L 2.453125 -0.890625 L 1.0625 -0.890625 L 0.71875 0 Z M 1.28125 -1.453125 L 2.25 -1.453125 L 1.765625 -2.703125 Z M 1.28125 -1.453125 "/></g></g></g><g fill="#0d1a42" fill-opacity="1"><g transform="translate(37.587666, 32.054599)"><g><path d="M 0.3125 0 L 0.3125 -3.390625 L 1 -3.390625 L 1 -0.625 L 2.859375 -0.625 L 2.859375 0 Z M 0.3125 0 "/></g></g></g><g fill="#0d1a42" fill-opacity="1"><g transform="translate(41.407048, 32.054599)"><g/></g></g><g fill="#0d1a42" fill-opacity="1"><g transform="translate(43.156902, 32.054599)"><g><path d="M 0.09375 -2.765625 L 0.09375 -3.390625 L 3.078125 -3.390625 L 3.078125 -2.765625 L 1.9375 -2.765625 L 1.9375 0 L 1.234375 0 L 1.234375 -2.765625 Z M 0.09375 -2.765625 "/></g></g></g><g fill="#0d1a42" fill-opacity="1"><g transform="translate(47.092602, 32.054599)"><g><path d="M 0.3125 0 L 0.3125 -3.390625 L 2.90625 -3.390625 L 2.90625 -2.78125 L 1 -2.78125 L 1 -2 L 2.265625 -2 L 2.265625 -1.421875 L 1 -1.421875 L 1 -0.609375 L 2.9375 -0.609375 L 2.9375 0 Z M 0.3125 0 "/></g></g></g><g fill="#0d1a42" fill-opacity="1"><g transform="translate(50.994376, 32.054599)"><g><path d="M 2 -0.59375 C 2.175781 -0.59375 2.34375 -0.628906 2.5 -0.703125 C 2.65625 -0.785156 2.789062 -0.894531 2.90625 -1.03125 L 3.375 -0.578125 C 3.207031 -0.390625 3 -0.238281 2.75 -0.125 C 2.5 -0.0078125 2.242188 0.046875 1.984375 0.046875 C 1.722656 0.046875 1.484375 0.00390625 1.265625 -0.078125 C 1.046875 -0.171875 0.851562 -0.296875 0.6875 -0.453125 C 0.53125 -0.609375 0.40625 -0.789062 0.3125 -1 C 0.21875 -1.21875 0.171875 -1.445312 0.171875 -1.6875 C 0.171875 -1.9375 0.21875 -2.164062 0.3125 -2.375 C 0.40625 -2.59375 0.53125 -2.78125 0.6875 -2.9375 C 0.851562 -3.09375 1.046875 -3.210938 1.265625 -3.296875 C 1.492188 -3.390625 1.734375 -3.4375 1.984375 -3.4375 C 2.253906 -3.4375 2.515625 -3.378906 2.765625 -3.265625 C 3.023438 -3.148438 3.234375 -3 3.390625 -2.8125 L 2.921875 -2.34375 C 2.796875 -2.488281 2.648438 -2.597656 2.484375 -2.671875 C 2.328125 -2.753906 2.160156 -2.796875 1.984375 -2.796875 C 1.828125 -2.796875 1.679688 -2.765625 1.546875 -2.703125 C 1.410156 -2.648438 1.296875 -2.570312 1.203125 -2.46875 C 1.109375 -2.375 1.03125 -2.257812 0.96875 -2.125 C 0.914062 -2 0.890625 -1.851562 0.890625 -1.6875 C 0.890625 -1.539062 0.914062 -1.398438 0.96875 -1.265625 C 1.03125 -1.128906 1.109375 -1.007812 1.203125 -0.90625 C 1.304688 -0.8125 1.425781 -0.734375 1.5625 -0.671875 C 1.695312 -0.617188 1.84375 -0.59375 2 -0.59375 Z M 2 -0.59375 "/></g></g></g><g fill="#0d1a42" fill-opacity="1"><g transform="translate(55.249956, 32.054599)"><g><path d="M 0.3125 0 L 0.3125 -3.390625 L 1 -3.390625 L 1 -2.03125 L 2.5625 -2.03125 L 2.5625 -3.390625 L 3.265625 -3.390625 L 3.265625 0 L 2.5625 0 L 2.5625 -1.390625 L 1 -1.390625 L 1 0 Z M 0.3125 0 "/></g></g></g></svg>