<svg xmlns="http://www.w3.org/2000/svg" xmlns:xlink="http://www.w3.org/1999/xlink" width="100" zoomAndPan="magnify" viewBox="0 0 75 37.5" height="50" preserveAspectRatio="xMidYMid meet" version="1.0"><defs><g/><clipPath id="d458745ea7"><path d="M 36 3.699219 L 38 3.699219 L 38 25.171875 L 36 25.171875 Z M 36 3.699219 " clip-rule="nonzero"/></clipPath><clipPath id="01c16cfb6f"><path d="M 28.777344 10 L 45.953125 10 L 45.953125 11 L 28.777344 11 Z M 28.777344 10 " clip-rule="nonzero"/></clipPath></defs><path fill="#0378be" d="M 30.789062 14.011719 C 30.75 13.96875 30.691406 13.941406 30.628906 13.941406 C 30.5625 13.941406 30.507812 13.96875 30.464844 14.011719 C 30.425781 14.054688 30.398438 14.117188 30.398438 14.183594 C 30.398438 14.25 30.425781 14.308594 30.464844 14.351562 C 30.507812 14.398438 30.566406 14.421875 30.628906 14.421875 C 30.691406 14.421875 30.75 14.398438 30.789062 14.351562 L 30.792969 14.351562 C 30.832031 14.308594 30.859375 14.25 30.859375 14.183594 C 30.859375 14.113281 30.832031 14.054688 30.792969 14.011719 Z M 30.757812 8.078125 L 30.5 8.078125 L 30.5 8.347656 L 30.757812 8.347656 Z M 30.328125 7.71875 L 31.101562 7.71875 L 31.101562 8.710938 L 30.800781 8.710938 L 30.800781 9.539062 L 30.457031 9.539062 L 30.457031 8.710938 L 30.15625 8.710938 L 30.15625 7.71875 Z M 30.800781 10.234375 L 30.800781 13.609375 C 30.886719 13.636719 30.96875 13.6875 31.03125 13.757812 C 31.136719 13.867188 31.199219 14.015625 31.199219 14.183594 C 31.199219 14.347656 31.136719 14.496094 31.03125 14.605469 C 30.929688 14.714844 30.785156 14.785156 30.628906 14.785156 C 30.46875 14.785156 30.328125 14.714844 30.222656 14.605469 C 30.121094 14.5 30.054688 14.347656 30.054688 14.183594 C 30.054688 14.015625 30.121094 13.867188 30.222656 13.757812 C 30.289062 13.6875 30.367188 13.636719 30.457031 13.609375 L 30.457031 10.234375 Z M 30.800781 10.234375 " fill-opacity="1" fill-rule="nonzero"/><path fill="#644c9a" d="M 32.105469 7.550781 L 31.84375 7.550781 L 31.84375 7.824219 L 32.105469 7.824219 Z M 31.675781 7.191406 L 32.445312 7.191406 L 32.445312 8.183594 L 32.144531 8.183594 L 32.144531 9.539062 L 31.804688 9.539062 L 31.804688 8.183594 L 31.503906 8.183594 L 31.503906 7.191406 Z M 32.136719 18.003906 C 32.097656 17.957031 32.039062 17.933594 31.976562 17.933594 C 31.910156 17.933594 31.855469 17.957031 31.8125 18.003906 C 31.769531 18.046875 31.746094 18.105469 31.746094 18.171875 C 31.746094 18.242188 31.769531 18.300781 31.8125 18.34375 C 31.855469 18.386719 31.910156 18.414062 31.976562 18.414062 C 32.039062 18.414062 32.097656 18.386719 32.136719 18.34375 C 32.179688 18.300781 32.203125 18.242188 32.203125 18.171875 C 32.203125 18.105469 32.179688 18.046875 32.136719 18.003906 Z M 32.144531 10.234375 L 32.144531 17.601562 C 32.234375 17.628906 32.3125 17.679688 32.378906 17.75 C 32.484375 17.859375 32.546875 18.007812 32.546875 18.171875 C 32.546875 18.339844 32.484375 18.488281 32.378906 18.597656 C 32.277344 18.707031 32.132812 18.773438 31.976562 18.773438 C 31.816406 18.773438 31.675781 18.707031 31.570312 18.597656 C 31.46875 18.488281 31.402344 18.339844 31.402344 18.171875 C 31.402344 18.007812 31.46875 17.855469 31.570312 17.75 C 31.636719 17.679688 31.714844 17.628906 31.804688 17.601562 L 31.804688 10.234375 Z M 32.144531 10.234375 " fill-opacity="1" fill-rule="nonzero"/><path fill="#c52f90" d="M 33.484375 19.945312 C 33.441406 19.902344 33.386719 19.875 33.320312 19.875 C 33.257812 19.875 33.199219 19.902344 33.160156 19.945312 L 33.160156 19.949219 C 33.117188 19.992188 33.09375 20.050781 33.09375 20.117188 C 33.09375 20.183594 33.117188 20.246094 33.160156 20.289062 C 33.199219 20.332031 33.257812 20.359375 33.320312 20.359375 C 33.386719 20.359375 33.441406 20.332031 33.484375 20.289062 C 33.527344 20.246094 33.550781 20.1875 33.550781 20.117188 C 33.550781 20.050781 33.527344 19.992188 33.484375 19.949219 Z M 33.453125 5.664062 L 33.191406 5.664062 L 33.191406 5.9375 L 33.453125 5.9375 Z M 33.023438 5.304688 L 33.792969 5.304688 L 33.792969 6.296875 L 33.492188 6.296875 L 33.492188 9.539062 L 33.152344 9.539062 L 33.152344 6.296875 L 32.851562 6.296875 L 32.851562 5.304688 Z M 33.492188 10.234375 L 33.492188 19.542969 C 33.582031 19.574219 33.660156 19.625 33.726562 19.691406 L 33.726562 19.695312 C 33.828125 19.804688 33.894531 19.953125 33.894531 20.117188 C 33.894531 20.285156 33.828125 20.433594 33.726562 20.542969 C 33.621094 20.652344 33.480469 20.71875 33.320312 20.71875 C 33.164062 20.71875 33.019531 20.652344 32.917969 20.542969 C 32.8125 20.433594 32.75 20.285156 32.75 20.117188 C 32.75 19.953125 32.8125 19.800781 32.917969 19.691406 C 32.984375 19.625 33.0625 19.574219 33.152344 19.542969 L 33.152344 10.234375 Z M 33.492188 10.234375 " fill-opacity="1" fill-rule="nonzero"/><path fill="#f04033" d="M 34.832031 17.722656 C 34.789062 17.675781 34.734375 17.652344 34.667969 17.652344 C 34.605469 17.652344 34.546875 17.675781 34.507812 17.722656 C 34.464844 17.765625 34.4375 17.824219 34.4375 17.890625 C 34.4375 17.960938 34.464844 18.019531 34.507812 18.0625 C 34.546875 18.105469 34.605469 18.132812 34.667969 18.132812 C 34.730469 18.132812 34.789062 18.105469 34.832031 18.0625 C 34.871094 18.019531 34.898438 17.960938 34.898438 17.890625 C 34.898438 17.824219 34.871094 17.765625 34.832031 17.722656 Z M 34.796875 6.46875 L 34.539062 6.46875 L 34.539062 6.742188 L 34.796875 6.742188 Z M 34.367188 6.109375 L 35.140625 6.109375 L 35.140625 7.101562 L 34.839844 7.101562 L 34.839844 9.539062 L 34.496094 9.539062 L 34.496094 7.101562 L 34.195312 7.101562 L 34.195312 6.109375 Z M 34.839844 10.234375 L 34.839844 17.316406 C 34.929688 17.347656 35.007812 17.398438 35.074219 17.46875 C 35.175781 17.578125 35.242188 17.726562 35.242188 17.890625 C 35.242188 18.058594 35.175781 18.207031 35.074219 18.316406 C 34.96875 18.425781 34.828125 18.492188 34.667969 18.492188 C 34.511719 18.492188 34.367188 18.425781 34.265625 18.316406 C 34.160156 18.207031 34.097656 18.058594 34.097656 17.890625 C 34.097656 17.726562 34.160156 17.574219 34.265625 17.46875 C 34.328125 17.398438 34.410156 17.347656 34.496094 17.316406 L 34.496094 10.234375 Z M 34.839844 10.234375 " fill-opacity="1" fill-rule="nonzero"/><path fill="#f58229" d="M 36.179688 23.09375 C 36.136719 23.050781 36.078125 23.023438 36.015625 23.023438 C 35.953125 23.023438 35.894531 23.050781 35.851562 23.09375 C 35.8125 23.140625 35.785156 23.199219 35.785156 23.265625 C 35.785156 23.332031 35.8125 23.394531 35.851562 23.4375 C 35.894531 23.480469 35.953125 23.507812 36.015625 23.507812 C 36.078125 23.507812 36.136719 23.480469 36.179688 23.4375 C 36.21875 23.394531 36.246094 23.332031 36.246094 23.265625 C 36.246094 23.199219 36.21875 23.140625 36.179688 23.09375 Z M 36.144531 4.53125 L 35.886719 4.53125 L 35.886719 4.804688 L 36.144531 4.804688 Z M 35.714844 4.171875 L 36.488281 4.171875 L 36.488281 5.164062 L 36.1875 5.164062 L 36.1875 9.539062 L 35.84375 9.539062 L 35.84375 5.164062 L 35.542969 5.164062 L 35.542969 4.171875 Z M 36.1875 10.234375 L 36.1875 22.691406 C 36.277344 22.722656 36.355469 22.773438 36.417969 22.839844 L 36.421875 22.84375 C 36.523438 22.953125 36.585938 23.101562 36.585938 23.265625 C 36.585938 23.433594 36.523438 23.582031 36.417969 23.691406 C 36.316406 23.800781 36.171875 23.867188 36.015625 23.867188 C 35.859375 23.867188 35.714844 23.800781 35.609375 23.691406 C 35.507812 23.582031 35.445312 23.433594 35.445312 23.265625 C 35.445312 23.101562 35.507812 22.949219 35.609375 22.839844 C 35.675781 22.773438 35.753906 22.722656 35.84375 22.691406 L 35.84375 10.234375 Z M 36.1875 10.234375 " fill-opacity="1" fill-rule="nonzero"/><g clip-path="url(#d458745ea7)"><path fill="#fbb811" d="M 37.523438 24.398438 C 37.484375 24.355469 37.425781 24.328125 37.363281 24.328125 C 37.296875 24.328125 37.242188 24.355469 37.199219 24.398438 C 37.160156 24.445312 37.132812 24.503906 37.132812 24.570312 C 37.132812 24.636719 37.160156 24.699219 37.199219 24.742188 C 37.242188 24.785156 37.300781 24.8125 37.363281 24.8125 C 37.425781 24.8125 37.484375 24.785156 37.523438 24.742188 L 37.527344 24.742188 C 37.566406 24.699219 37.59375 24.636719 37.59375 24.570312 C 37.59375 24.503906 37.566406 24.441406 37.527344 24.398438 Z M 37.492188 4.058594 L 37.234375 4.058594 L 37.234375 4.332031 L 37.492188 4.332031 Z M 37.0625 3.699219 L 37.835938 3.699219 L 37.835938 4.691406 L 37.535156 4.691406 L 37.535156 9.539062 L 37.191406 9.539062 L 37.191406 4.691406 L 36.890625 4.691406 L 36.890625 3.699219 Z M 37.535156 10.234375 L 37.535156 23.996094 C 37.621094 24.027344 37.703125 24.078125 37.765625 24.144531 C 37.871094 24.253906 37.933594 24.40625 37.933594 24.570312 C 37.933594 24.738281 37.871094 24.886719 37.765625 24.996094 C 37.664062 25.105469 37.519531 25.171875 37.363281 25.171875 C 37.203125 25.171875 37.0625 25.105469 36.957031 24.996094 C 36.855469 24.886719 36.789062 24.738281 36.789062 24.570312 C 36.789062 24.40625 36.855469 24.253906 36.957031 24.144531 C 37.023438 24.078125 37.101562 24.027344 37.191406 23.996094 L 37.191406 10.234375 Z M 37.535156 10.234375 " fill-opacity="1" fill-rule="nonzero"/></g><path fill="#88c63f" d="M 38.871094 21.898438 C 38.832031 21.855469 38.773438 21.828125 38.710938 21.828125 C 38.644531 21.828125 38.585938 21.855469 38.546875 21.898438 C 38.503906 21.941406 38.480469 22.003906 38.480469 22.070312 C 38.480469 22.136719 38.503906 22.195312 38.546875 22.238281 C 38.589844 22.285156 38.644531 22.3125 38.710938 22.3125 C 38.773438 22.3125 38.832031 22.285156 38.871094 22.238281 C 38.914062 22.195312 38.9375 22.136719 38.9375 22.070312 C 38.9375 22.003906 38.914062 21.941406 38.871094 21.898438 Z M 38.839844 4.960938 L 38.578125 4.960938 L 38.578125 5.234375 L 38.839844 5.234375 Z M 38.410156 4.601562 L 39.179688 4.601562 L 39.179688 5.59375 L 38.878906 5.59375 L 38.878906 9.539062 L 38.539062 9.539062 L 38.539062 5.59375 L 38.238281 5.59375 L 38.238281 4.601562 Z M 38.878906 10.234375 L 38.878906 21.496094 C 38.96875 21.523438 39.046875 21.578125 39.113281 21.644531 C 39.21875 21.753906 39.28125 21.90625 39.28125 22.070312 C 39.28125 22.234375 39.21875 22.386719 39.113281 22.496094 C 39.011719 22.601562 38.867188 22.671875 38.710938 22.671875 C 38.550781 22.671875 38.410156 22.601562 38.304688 22.496094 C 38.203125 22.386719 38.136719 22.234375 38.136719 22.070312 C 38.136719 21.902344 38.203125 21.753906 38.304688 21.644531 C 38.371094 21.578125 38.449219 21.523438 38.539062 21.496094 L 38.539062 10.234375 Z M 38.878906 10.234375 " fill-opacity="1" fill-rule="nonzero"/><path fill="#05afaf" d="M 40.21875 16.710938 C 40.175781 16.664062 40.121094 16.640625 40.054688 16.640625 C 39.992188 16.640625 39.933594 16.664062 39.894531 16.710938 C 39.851562 16.753906 39.824219 16.8125 39.824219 16.878906 C 39.824219 16.949219 39.851562 17.007812 39.894531 17.050781 C 39.933594 17.09375 39.992188 17.121094 40.054688 17.121094 C 40.121094 17.121094 40.175781 17.09375 40.21875 17.050781 C 40.261719 17.007812 40.285156 16.949219 40.285156 16.878906 C 40.285156 16.8125 40.261719 16.753906 40.21875 16.710938 Z M 40.183594 6.832031 L 39.925781 6.832031 L 39.925781 7.105469 L 40.183594 7.105469 Z M 39.753906 6.472656 L 40.527344 6.472656 L 40.527344 7.464844 L 40.226562 7.464844 L 40.226562 9.539062 L 39.886719 9.539062 L 39.886719 7.464844 L 39.585938 7.464844 L 39.585938 6.472656 Z M 40.226562 10.234375 L 40.226562 16.308594 C 40.316406 16.335938 40.394531 16.386719 40.460938 16.457031 C 40.5625 16.566406 40.628906 16.714844 40.628906 16.878906 C 40.628906 17.046875 40.5625 17.195312 40.460938 17.304688 C 40.355469 17.414062 40.214844 17.480469 40.054688 17.480469 C 39.898438 17.480469 39.753906 17.414062 39.652344 17.304688 C 39.546875 17.195312 39.484375 17.046875 39.484375 16.878906 C 39.484375 16.714844 39.546875 16.5625 39.652344 16.457031 C 39.714844 16.386719 39.796875 16.335938 39.886719 16.304688 L 39.886719 10.234375 Z M 40.226562 10.234375 " fill-opacity="1" fill-rule="nonzero"/><path fill="#0378be" d="M 41.566406 18.148438 C 41.523438 18.105469 41.464844 18.078125 41.402344 18.078125 C 41.339844 18.078125 41.28125 18.105469 41.242188 18.148438 C 41.199219 18.191406 41.171875 18.253906 41.171875 18.320312 C 41.171875 18.386719 41.199219 18.445312 41.242188 18.492188 C 41.28125 18.535156 41.339844 18.5625 41.402344 18.5625 C 41.464844 18.5625 41.523438 18.535156 41.566406 18.492188 C 41.605469 18.449219 41.632812 18.386719 41.632812 18.320312 C 41.632812 18.253906 41.605469 18.191406 41.566406 18.148438 Z M 41.53125 6.3125 L 41.273438 6.3125 L 41.273438 6.585938 L 41.53125 6.585938 Z M 41.101562 5.953125 L 41.875 5.953125 L 41.875 6.945312 L 41.574219 6.945312 L 41.574219 9.539062 L 41.230469 9.539062 L 41.230469 6.945312 L 40.929688 6.945312 L 40.929688 5.953125 Z M 41.574219 10.234375 L 41.574219 17.746094 C 41.664062 17.773438 41.742188 17.828125 41.808594 17.894531 C 41.910156 18.003906 41.976562 18.15625 41.976562 18.320312 C 41.976562 18.484375 41.910156 18.636719 41.808594 18.746094 C 41.703125 18.855469 41.5625 18.921875 41.402344 18.921875 C 41.246094 18.921875 41.101562 18.855469 41 18.746094 C 40.894531 18.636719 40.832031 18.484375 40.832031 18.320312 C 40.832031 18.152344 40.894531 18.003906 41 17.894531 C 41.0625 17.828125 41.144531 17.773438 41.230469 17.746094 L 41.230469 10.234375 Z M 41.574219 10.234375 " fill-opacity="1" fill-rule="nonzero"/><path fill="#644c9a" d="M 42.914062 15.765625 C 42.871094 15.722656 42.8125 15.695312 42.75 15.695312 C 42.6875 15.695312 42.628906 15.722656 42.585938 15.765625 C 42.546875 15.808594 42.519531 15.871094 42.519531 15.9375 C 42.519531 16.003906 42.546875 16.0625 42.585938 16.105469 C 42.628906 16.152344 42.6875 16.179688 42.75 16.179688 C 42.8125 16.179688 42.871094 16.152344 42.914062 16.105469 C 42.953125 16.0625 42.980469 16.003906 42.980469 15.9375 C 42.980469 15.867188 42.953125 15.808594 42.914062 15.765625 Z M 42.878906 7.171875 L 42.621094 7.171875 L 42.621094 7.445312 L 42.878906 7.445312 Z M 42.449219 6.8125 L 43.222656 6.8125 L 43.222656 7.804688 L 42.921875 7.804688 L 42.921875 9.539062 L 42.578125 9.539062 L 42.578125 7.804688 L 42.277344 7.804688 L 42.277344 6.8125 Z M 42.921875 10.234375 L 42.921875 15.363281 C 43.007812 15.390625 43.089844 15.441406 43.152344 15.511719 C 43.257812 15.621094 43.320312 15.769531 43.320312 15.9375 C 43.320312 16.101562 43.257812 16.253906 43.152344 16.359375 C 43.050781 16.46875 42.90625 16.539062 42.75 16.539062 C 42.59375 16.539062 42.449219 16.46875 42.34375 16.363281 C 42.242188 16.253906 42.179688 16.101562 42.179688 15.9375 C 42.179688 15.769531 42.242188 15.621094 42.34375 15.511719 C 42.410156 15.441406 42.488281 15.390625 42.578125 15.363281 L 42.578125 10.234375 Z M 42.921875 10.234375 " fill-opacity="1" fill-rule="nonzero"/><path fill="#c52f90" d="M 44.257812 14.011719 C 44.21875 13.96875 44.160156 13.941406 44.097656 13.941406 C 44.03125 13.941406 43.976562 13.96875 43.933594 14.011719 C 43.890625 14.054688 43.867188 14.117188 43.867188 14.183594 C 43.867188 14.25 43.890625 14.308594 43.933594 14.351562 C 43.976562 14.398438 44.03125 14.421875 44.097656 14.421875 C 44.160156 14.421875 44.21875 14.398438 44.257812 14.351562 C 44.300781 14.308594 44.328125 14.25 44.328125 14.183594 C 44.328125 14.113281 44.300781 14.054688 44.257812 14.011719 Z M 44.226562 7.804688 L 43.96875 7.804688 L 43.96875 8.078125 L 44.226562 8.078125 Z M 43.796875 7.445312 L 44.566406 7.445312 L 44.566406 8.4375 L 44.265625 8.4375 L 44.265625 9.539062 L 43.925781 9.539062 L 43.925781 8.4375 L 43.625 8.4375 L 43.625 7.445312 Z M 44.265625 10.234375 L 44.265625 13.609375 C 44.355469 13.636719 44.4375 13.6875 44.5 13.757812 C 44.605469 13.867188 44.667969 14.015625 44.667969 14.183594 C 44.667969 14.347656 44.605469 14.496094 44.5 14.605469 C 44.398438 14.714844 44.253906 14.785156 44.097656 14.785156 C 43.9375 14.785156 43.796875 14.714844 43.691406 14.605469 C 43.589844 14.5 43.523438 14.347656 43.523438 14.183594 C 43.523438 14.015625 43.589844 13.867188 43.691406 13.757812 C 43.757812 13.6875 43.835938 13.636719 43.925781 13.609375 L 43.925781 10.234375 Z M 44.265625 10.234375 " fill-opacity="1" fill-rule="nonzero"/><g clip-path="url(#01c16cfb6f)"><path fill="#f58229" d="M 28.789062 10.054688 L 45.9375 10.054688 L 45.9375 10.414062 L 28.789062 10.414062 Z M 28.789062 10.054688 " fill-opacity="1" fill-rule="nonzero"/></g><g fill="#ffffff" fill-opacity="1"><g transform="translate(15.711518, 29.99088)"><g><path d="M 0.3125 0 L 0.3125 -3.46875 L 1.640625 -3.46875 C 1.898438 -3.46875 2.140625 -3.421875 2.359375 -3.328125 C 2.585938 -3.242188 2.78125 -3.125 2.9375 -2.96875 C 3.101562 -2.8125 3.234375 -2.625 3.328125 -2.40625 C 3.429688 -2.195312 3.484375 -1.96875 3.484375 -1.71875 C 3.484375 -1.476562 3.429688 -1.253906 3.328125 -1.046875 C 3.234375 -0.835938 3.101562 -0.65625 2.9375 -0.5 C 2.78125 -0.34375 2.585938 -0.21875 2.359375 -0.125 C 2.140625 -0.0390625 1.898438 0 1.640625 0 Z M 1.640625 -2.828125 L 1.03125 -2.828125 L 1.03125 -0.640625 L 1.640625 -0.640625 C 1.796875 -0.640625 1.9375 -0.664062 2.0625 -0.71875 C 2.195312 -0.78125 2.3125 -0.859375 2.40625 -0.953125 C 2.507812 -1.046875 2.585938 -1.160156 2.640625 -1.296875 C 2.703125 -1.429688 2.734375 -1.570312 2.734375 -1.71875 C 2.734375 -1.875 2.703125 -2.019531 2.640625 -2.15625 C 2.585938 -2.289062 2.507812 -2.40625 2.40625 -2.5 C 2.3125 -2.601562 2.195312 -2.679688 2.0625 -2.734375 C 1.9375 -2.796875 1.796875 -2.828125 1.640625 -2.828125 Z M 1.640625 -2.828125 "/></g></g></g><g fill="#ffffff" fill-opacity="1"><g transform="translate(20.156369, 29.99088)"><g><path d="M 0.3125 0 L 0.3125 -3.46875 L 1.03125 -3.46875 L 1.03125 0 Z M 0.3125 0 "/></g></g></g><g fill="#ffffff" fill-opacity="1"><g transform="translate(22.29476, 29.99088)"><g><path d="M 3.75 -1.734375 C 3.75 -1.472656 3.703125 -1.234375 3.609375 -1.015625 C 3.523438 -0.796875 3.40625 -0.609375 3.25 -0.453125 C 3.101562 -0.296875 2.921875 -0.171875 2.703125 -0.078125 C 2.492188 0.00390625 2.265625 0.046875 2.015625 0.046875 C 1.753906 0.046875 1.507812 0.00390625 1.28125 -0.078125 C 1.0625 -0.171875 0.867188 -0.296875 0.703125 -0.453125 C 0.546875 -0.617188 0.414062 -0.8125 0.3125 -1.03125 C 0.21875 -1.25 0.171875 -1.484375 0.171875 -1.734375 C 0.171875 -1.984375 0.21875 -2.21875 0.3125 -2.4375 C 0.40625 -2.65625 0.535156 -2.84375 0.703125 -3 C 0.867188 -3.164062 1.0625 -3.289062 1.28125 -3.375 C 1.507812 -3.46875 1.75 -3.515625 2 -3.515625 C 2.289062 -3.515625 2.5625 -3.457031 2.8125 -3.34375 C 3.070312 -3.226562 3.285156 -3.070312 3.453125 -2.875 L 2.953125 -2.40625 C 2.828125 -2.550781 2.679688 -2.660156 2.515625 -2.734375 C 2.359375 -2.816406 2.1875 -2.859375 2 -2.859375 C 1.84375 -2.859375 1.695312 -2.828125 1.5625 -2.765625 C 1.4375 -2.710938 1.320312 -2.632812 1.21875 -2.53125 C 1.125 -2.4375 1.050781 -2.316406 1 -2.171875 C 0.945312 -2.035156 0.921875 -1.890625 0.921875 -1.734375 C 0.921875 -1.566406 0.945312 -1.414062 1 -1.28125 C 1.050781 -1.144531 1.125 -1.023438 1.21875 -0.921875 C 1.320312 -0.816406 1.441406 -0.734375 1.578125 -0.671875 C 1.722656 -0.617188 1.875 -0.59375 2.03125 -0.59375 C 2.269531 -0.59375 2.476562 -0.660156 2.65625 -0.796875 C 2.832031 -0.929688 2.941406 -1.109375 2.984375 -1.328125 L 1.96875 -1.328125 L 1.96875 -1.953125 L 3.75 -1.953125 Z M 3.75 -1.734375 "/></g></g></g><g fill="#ffffff" fill-opacity="1"><g transform="translate(27.016785, 29.99088)"><g><path d="M 0.3125 0 L 0.3125 -3.46875 L 1.03125 -3.46875 L 1.03125 0 Z M 0.3125 0 "/></g></g></g><g fill="#ffffff" fill-opacity="1"><g transform="translate(29.155176, 29.99088)"><g><path d="M 0.09375 -2.828125 L 0.09375 -3.46875 L 3.140625 -3.46875 L 3.140625 -2.828125 L 1.96875 -2.828125 L 1.96875 0 L 1.265625 0 L 1.265625 -2.828125 Z M 0.09375 -2.828125 "/></g></g></g><g fill="#ffffff" fill-opacity="1"><g transform="translate(33.174372, 29.99088)"><g><path d="M -0.015625 0 L 1.40625 -3.46875 L 2.234375 -3.46875 L 3.640625 0 L 2.875 0 L 2.515625 -0.90625 L 1.078125 -0.90625 L 0.734375 0 Z M 1.3125 -1.484375 L 2.296875 -1.484375 L 1.8125 -2.765625 Z M 1.3125 -1.484375 "/></g></g></g><g fill="#ffffff" fill-opacity="1"><g transform="translate(37.589528, 29.99088)"><g><path d="M 0.3125 0 L 0.3125 -3.46875 L 1.03125 -3.46875 L 1.03125 -0.640625 L 2.921875 -0.640625 L 2.921875 0 Z M 0.3125 0 "/></g></g></g><g fill="#ffffff" fill-opacity="1"><g transform="translate(41.489937, 29.99088)"><g/></g></g><g fill="#ffffff" fill-opacity="1"><g transform="translate(43.276914, 29.99088)"><g><path d="M 0.09375 -2.828125 L 0.09375 -3.46875 L 3.140625 -3.46875 L 3.140625 -2.828125 L 1.96875 -2.828125 L 1.96875 0 L 1.265625 0 L 1.265625 -2.828125 Z M 0.09375 -2.828125 "/></g></g></g><g fill="#ffffff" fill-opacity="1"><g transform="translate(47.296109, 29.99088)"><g><path d="M 0.3125 0 L 0.3125 -3.46875 L 2.984375 -3.46875 L 2.984375 -2.84375 L 1.03125 -2.84375 L 1.03125 -2.046875 L 2.3125 -2.046875 L 2.3125 -1.453125 L 1.03125 -1.453125 L 1.03125 -0.625 L 3 -0.625 L 3 0 Z M 0.3125 0 "/></g></g></g><g fill="#ffffff" fill-opacity="1"><g transform="translate(51.280658, 29.99088)"><g><path d="M 2.046875 -0.609375 C 2.222656 -0.609375 2.390625 -0.644531 2.546875 -0.71875 C 2.710938 -0.800781 2.859375 -0.914062 2.984375 -1.0625 L 3.453125 -0.59375 C 3.285156 -0.394531 3.070312 -0.238281 2.8125 -0.125 C 2.5625 -0.0078125 2.300781 0.046875 2.03125 0.046875 C 1.769531 0.046875 1.523438 0 1.296875 -0.09375 C 1.066406 -0.1875 0.867188 -0.3125 0.703125 -0.46875 C 0.535156 -0.625 0.40625 -0.8125 0.3125 -1.03125 C 0.21875 -1.25 0.171875 -1.484375 0.171875 -1.734375 C 0.171875 -1.984375 0.21875 -2.21875 0.3125 -2.4375 C 0.414062 -2.65625 0.546875 -2.84375 0.703125 -3 C 0.867188 -3.164062 1.066406 -3.289062 1.296875 -3.375 C 1.523438 -3.46875 1.769531 -3.515625 2.03125 -3.515625 C 2.300781 -3.515625 2.566406 -3.457031 2.828125 -3.34375 C 3.085938 -3.226562 3.300781 -3.070312 3.46875 -2.875 L 2.984375 -2.390625 C 2.859375 -2.546875 2.710938 -2.660156 2.546875 -2.734375 C 2.378906 -2.816406 2.207031 -2.859375 2.03125 -2.859375 C 1.875 -2.859375 1.722656 -2.828125 1.578125 -2.765625 C 1.441406 -2.710938 1.320312 -2.632812 1.21875 -2.53125 C 1.125 -2.4375 1.050781 -2.316406 1 -2.171875 C 0.945312 -2.035156 0.921875 -1.890625 0.921875 -1.734375 C 0.921875 -1.578125 0.945312 -1.425781 1 -1.28125 C 1.0625 -1.144531 1.140625 -1.023438 1.234375 -0.921875 C 1.335938 -0.828125 1.457031 -0.75 1.59375 -0.6875 C 1.726562 -0.632812 1.878906 -0.609375 2.046875 -0.609375 Z M 2.046875 -0.609375 "/></g></g></g><g fill="#ffffff" fill-opacity="1"><g transform="translate(55.626519, 29.99088)"><g><path d="M 0.3125 0 L 0.3125 -3.46875 L 1.03125 -3.46875 L 1.03125 -2.078125 L 2.625 -2.078125 L 2.625 -3.46875 L 3.34375 -3.46875 L 3.34375 0 L 2.625 0 L 2.625 -1.421875 L 1.03125 -1.421875 L 1.03125 0 Z M 0.3125 0 "/></g></g></g></svg>